<svg width="8" height="8" viewBox="0 0 8 8" fill="none" xmlns="http://www.w3.org/2000/svg">
<path d="M2.50748 1.1932C2.49421 1.19315 2.48106 1.19572 2.46878 1.20076C2.45651 1.2058 2.44535 1.21322 2.43595 1.22258C2.42654 1.23195 2.41908 1.24308 2.41399 1.25533C2.4089 1.26759 2.40628 1.28073 2.40628 1.294C2.40628 1.3496 2.45148 1.3944 2.50748 1.3944H3.99268C4.04868 1.3944 4.09388 1.3496 4.09388 1.294C4.09388 1.28073 4.09126 1.26759 4.08617 1.25533C4.08108 1.24308 4.07362 1.23195 4.06422 1.22258C4.05481 1.21322 4.04365 1.2058 4.03138 1.20076C4.0191 1.19572 4.00595 1.19315 3.99268 1.1932H2.50748ZM3.99268 0.6564C4.28628 0.6564 4.53388 0.8524 4.61028 1.1204L5.48028 1.1208C5.72868 1.1224 5.92908 1.2028 6.05308 1.376C6.15948 1.5248 6.20188 1.716 6.19108 1.9308L6.18988 7.136C6.20668 7.3568 6.16508 7.552 6.05868 7.714C5.93388 7.9032 5.73028 7.998 5.47788 8.0004H1.10588C0.801881 7.9884 0.576681 7.9168 0.435881 7.7568C0.305081 7.6084 0.247881 7.4048 0.250281 7.1568V1.936C0.245081 1.696 0.311881 1.4936 0.457481 1.344C0.607881 1.1904 0.830281 1.1224 1.11628 1.1204H1.89028C1.96628 0.8524 2.21388 0.6564 2.50748 0.6564H3.99268ZM3.99268 1.9312H2.50748C2.28908 1.9312 2.09668 1.8232 1.98068 1.6576H1.11788C0.964681 1.6584 0.877081 1.6856 0.845081 1.7184C0.808681 1.7556 0.787481 1.8192 0.789881 1.9308V7.1588C0.788681 7.2888 0.810681 7.3676 0.841881 7.4028C0.863481 7.4272 0.956281 7.4568 1.11588 7.4632H5.47588C5.55588 7.4624 5.58788 7.4472 5.60628 7.4196C5.64268 7.3644 5.65948 7.286 5.65028 7.1564L5.65068 1.918C5.65628 1.8008 5.63988 1.7252 5.61228 1.6868C5.60188 1.6728 5.56588 1.658 5.47788 1.6576H4.51908C4.40308 1.8232 4.21108 1.9312 3.99268 1.9312ZM6.72988 0C7.12748 0 7.44988 0.3204 7.44988 0.716V6.3488C7.44988 6.744 7.12748 7.0648 6.72988 7.0648H5.94668V6.5276H6.72948C6.82908 6.5276 6.90948 6.4476 6.90948 6.3488V0.7156C6.90927 0.668036 6.8902 0.622499 6.85645 0.588979C6.82271 0.555459 6.77704 0.536694 6.72948 0.5368H3.70708C3.60788 0.5368 3.52708 0.6168 3.52708 0.7156V0.7784H2.98708V0.7156C2.98708 0.3204 3.30948 0 3.70708 0H6.72988ZM3.12828 4.7004C3.27748 4.7004 3.39828 4.8204 3.39828 4.9688C3.39828 5.1168 3.27748 5.2372 3.12828 5.2372H1.50788C1.47253 5.23736 1.43749 5.23055 1.40477 5.21717C1.37205 5.20379 1.34229 5.18409 1.31718 5.1592C1.29207 5.13432 1.27211 5.10473 1.25843 5.07213C1.24476 5.03953 1.23764 5.00455 1.23748 4.9692C1.23748 4.8208 1.35868 4.7004 1.50788 4.7004H3.12828ZM4.74908 3.6268C4.89788 3.6268 5.01908 3.7468 5.01908 3.8952C5.01908 4.0432 4.89788 4.1636 4.74908 4.1636H1.50788C1.47253 4.16376 1.43749 4.15695 1.40477 4.14357C1.37205 4.13019 1.34229 4.11049 1.31718 4.0856C1.29207 4.06072 1.27211 4.03113 1.25843 3.99853C1.24476 3.96593 1.23764 3.93095 1.23748 3.8956C1.23748 3.7472 1.35868 3.6268 1.50788 3.6268H4.74908ZM4.74908 2.5532C4.89788 2.5532 5.01908 2.6732 5.01908 2.8216C5.01898 2.85695 5.01191 2.89194 4.99828 2.92456C4.98466 2.95718 4.96474 2.9868 4.93967 3.01172C4.9146 3.03664 4.88486 3.05638 4.85216 3.06981C4.81946 3.08325 4.78443 3.0901 4.74908 3.09H1.50788C1.47253 3.09016 1.43749 3.08335 1.40477 3.06997C1.37205 3.05659 1.34229 3.03689 1.31718 3.012C1.29207 2.98712 1.27211 2.95753 1.25843 2.92493C1.24476 2.89233 1.23764 2.85735 1.23748 2.822C1.23748 2.6736 1.35868 2.5532 1.50788 2.5532H4.74908Z" fill="#E4A951"/>
</svg>
